<?xml version="1.0" standalone="no"?>
<!DOCTYPE svg PUBLIC "-//W3C//DTD SVG 20010904//EN"
 "http://www.w3.org/TR/2001/REC-SVG-20010904/DTD/svg10.dtd">
<svg version="1.0" xmlns="http://www.w3.org/2000/svg"
 width="189.000000pt" height="267.000000pt" viewBox="0 0 189.000000 267.000000"
 preserveAspectRatio="xMidYMid meet">

<g transform="translate(0.000000,267.000000) scale(0.100000,-0.100000)"
fill="#000000" stroke="none">
<path d="M390 1713 c0 -955 -1 -931 62 -1062 40 -83 160 -207 238 -246 186
-94 372 -98 545 -10 138 70 242 191 293 339 l27 81 3 790 c2 435 0 832 -3 883
l-7 93 -281 -4 c-336 -5 -246 -5 -589 0 l-288 4 0 -868z m185 684 c0 -57 3
-67 18 -67 14 0 17 10 17 70 l0 70 30 0 30 0 0 -70 c0 -63 2 -70 20 -70 18 0
20 7 20 70 0 68 1 70 25 70 25 0 25 0 25 -95 l0 -95 -120 0 -120 0 0 96 0 95
28 -3 c26 -3 27 -4 27 -71z m279 36 l19 -38 12 35 12 35 96 3 97 3 0 -26 c0
-18 -5 -25 -20 -25 -18 0 -20 -7 -20 -70 l0 -70 -30 0 -30 0 0 70 c0 63 -2 70
-20 70 -11 0 -20 6 -20 13 -1 6 -17 -25 -37 -70 -33 -76 -39 -83 -65 -83 -32
0 -32 0 -17 33 9 20 6 34 -20 85 -17 34 -31 64 -31 67 0 3 13 5 28 5 23 0 32
-7 46 -37z m308 -10 l3 -48 28 48 c23 39 33 47 57 47 l30 0 0 -95 0 -95 -29 0
c-28 0 -30 2 -33 48 l-3 47 -30 -47 c-24 -38 -36 -48 -57 -48 l-28 0 0 95 0
95 29 0 c28 0 30 -2 33 -47z m276 15 c3 -26 1 -27 -31 -21 -29 4 -37 2 -47
-17 -9 -17 -9 -29 -1 -48 10 -21 16 -24 47 -19 34 6 35 5 32 -21 -3 -24 -8
-27 -45 -30 -60 -4 -93 29 -93 93 0 64 33 97 93 93 37 -3 42 -6 45 -30z m-361
-508 c3 -20 0 -47 -7 -59 -13 -26 -67 -61 -93 -61 -37 0 -85 32 -102 66 -21
44 -10 81 52 178 l45 70 50 -78 c29 -45 52 -94 55 -116z m-164 -143 c43 -70
48 -120 17 -160 -56 -70 -165 -47 -189 40 -10 37 8 88 60 165 l42 62 16 -23
c9 -13 33 -50 54 -84z m241 30 c52 -84 64 -124 46 -166 -27 -67 -118 -86 -170
-36 -38 36 -45 73 -25 121 19 46 87 154 97 154 4 0 27 -33 52 -73z m-137 -394
c3 -10 15 -25 26 -34 26 -21 16 -54 -13 -46 -11 3 -20 1 -20 -4 0 -5 11 -9 25
-9 39 0 135 -37 181 -68 36 -26 42 -27 61 -15 18 12 23 12 37 -3 15 -14 15
-19 3 -37 -12 -19 -11 -25 15 -61 33 -48 68 -143 68 -186 0 -16 4 -30 9 -30 5
0 7 9 4 20 -7 25 25 40 41 18 6 -8 21 -20 34 -27 28 -15 26 -49 -3 -65 -11 -6
-24 -17 -28 -23 -14 -22 -47 -16 -47 8 0 15 5 19 16 15 8 -3 12 -2 9 4 -14 22
-35 10 -35 -20 0 -43 -33 -132 -68 -183 -26 -39 -27 -45 -15 -64 12 -18 12
-23 -3 -37 -14 -15 -19 -15 -37 -3 -19 12 -25 11 -63 -15 -47 -32 -144 -68
-181 -68 -12 0 -23 -4 -23 -9 0 -5 9 -7 20 -4 29 8 39 -25 13 -46 -11 -9 -23
-24 -27 -34 -8 -25 -48 -18 -61 10 -5 13 -15 23 -22 23 -6 0 -13 6 -16 13 -7
20 4 37 25 37 15 0 18 -4 13 -17 -5 -14 -3 -15 6 -6 17 17 2 33 -32 33 -42 0
-137 35 -185 68 -36 26 -42 27 -61 15 -18 -12 -23 -12 -37 3 -15 14 -15 19 -3
37 12 19 11 25 -15 61 -33 48 -68 143 -68 186 0 23 -4 30 -20 30 -11 0 -20 -4
-20 -10 0 -5 7 -7 15 -4 10 4 15 0 15 -15 0 -24 -33 -30 -47 -9 -4 7 -17 18
-28 24 -29 16 -31 50 -3 65 13 7 28 19 34 27 16 22 48 7 41 -18 -3 -11 -1 -20
4 -20 5 0 9 14 9 30 0 43 35 138 68 186 26 36 27 42 15 61 -12 18 -12 23 3 37
14 15 19 15 37 3 18 -12 26 -10 69 20 52 34 133 63 179 63 32 0 47 16 30 33
-9 9 -11 8 -6 -5 5 -14 2 -18 -13 -18 -28 0 -35 26 -13 47 10 10 21 26 24 36
4 10 17 17 32 17 15 0 28 -7 32 -17z"/>
<path d="M837 1286 c-115 -48 -174 -104 -225 -213 -24 -52 -27 -70 -27 -163 0
-97 2 -110 32 -172 40 -85 106 -151 191 -191 62 -30 75 -32 172 -32 97 0 110
2 172 32 37 17 88 52 113 78 26 25 61 76 78 113 30 62 32 75 32 172 0 97 -2
110 -32 172 -40 85 -106 151 -191 191 -58 28 -79 32 -162 35 -82 2 -103 -1
-153 -22z m113 -16 c0 -23 -4 -30 -20 -30 -29 0 -126 -39 -141 -56 -10 -13
-14 -12 -31 6 -19 21 -19 22 -2 35 32 24 105 56 148 65 23 4 42 8 44 9 1 1 2
-12 2 -29z m160 3 c25 -9 62 -28 83 -41 38 -25 38 -26 19 -45 -20 -19 -20 -19
-57 6 -21 14 -60 32 -87 38 -41 11 -47 16 -43 33 4 19 4 18 -6 -1 -21 -41 -72
-20 -55 23 7 18 74 12 146 -13z m-4 -72 c64 -29 137 -101 166 -165 32 -72 31
-181 -1 -253 -29 -66 -110 -143 -176 -169 -66 -25 -164 -25 -230 0 -66 26
-147 103 -176 169 -34 76 -33 182 2 257 76 160 257 230 415 161z m-356 -16
c17 -20 5 -45 -20 -45 -23 0 -35 22 -26 45 7 19 30 19 46 0z m515 -25 c0 -18
-6 -26 -23 -28 -24 -4 -38 18 -28 44 3 9 15 14 28 12 17 -2 23 -10 23 -28z
m-560 -60 c-19 -22 -55 -112 -55 -141 0 -16 -5 -19 -22 -15 l-23 6 23 -12 c32
-16 26 -53 -8 -53 -24 0 -25 2 -23 55 3 62 25 127 60 182 l25 36 20 -20 c18
-18 18 -21 3 -38z m630 -42 c15 -32 25 -77 27 -113 3 -58 2 -60 -22 -60 -34 0
-40 37 -8 53 19 10 19 11 3 7 -17 -4 -22 3 -33 47 -6 29 -23 68 -36 88 l-23
35 21 16 c19 15 22 15 34 -2 7 -10 24 -43 37 -71z m-676 -236 c6 -27 24 -66
38 -87 25 -37 25 -37 6 -57 -19 -19 -20 -19 -44 19 -29 44 -48 87 -59 137 -8
34 -7 36 19 36 24 0 29 -6 40 -48z m701 21 c0 -16 -13 -55 -29 -88 -44 -89
-45 -90 -69 -69 l-21 17 24 35 c13 19 30 57 36 84 11 40 17 48 36 48 18 0 23
-5 23 -27z m-100 -168 c17 -20 5 -45 -20 -45 -23 0 -35 22 -26 45 7 19 30 19
46 0z m-505 -25 c0 -18 -6 -26 -23 -28 -24 -4 -38 18 -28 44 3 9 15 14 28 12
17 -2 23 -10 23 -28z m143 -62 c46 -11 52 -16 52 -39 0 -26 -1 -26 -46 -18
-25 5 -72 23 -104 40 -58 31 -59 32 -42 54 l17 22 35 -23 c20 -13 59 -30 88
-36z m312 42 c19 -19 19 -20 -23 -44 -102 -60 -161 -72 -163 -33 -1 20 5 26
46 36 26 7 62 23 81 36 42 29 35 29 59 5z m-196 -65 c8 -23 -4 -45 -25 -45
-22 0 -34 22 -25 45 3 8 14 15 25 15 10 0 21 -7 25 -15z"/>
<path d="M925 1065 c-106 -38 -144 -170 -74 -259 62 -78 196 -78 258 0 102
130 -29 315 -184 259z m60 -78 c11 0 30 4 42 8 30 10 48 -24 32 -59 -9 -18 -9
-33 0 -58 10 -28 9 -35 -6 -45 -10 -8 -26 -10 -37 -6 -26 9 -56 8 -77 -1 -24
-11 -52 21 -42 48 9 26 9 56 -1 77 -11 24 21 52 48 42 11 -4 30 -7 41 -6z"/>
<path d="M910 961 c0 -28 15 -33 34 -12 18 20 12 31 -16 31 -11 0 -18 -7 -18
-19z"/>
<path d="M1006 971 c-7 -11 28 -43 37 -34 4 3 7 15 7 25 0 19 -34 26 -44 9z"/>
<path d="M950 935 l-24 -26 27 -27 27 -27 27 27 27 27 -24 26 c-13 14 -26 25
-30 25 -4 0 -17 -11 -30 -25z m50 -11 c11 -12 10 -18 -3 -32 -16 -15 -18 -15
-34 0 -13 14 -14 20 -3 32 7 9 16 16 20 16 4 0 13 -7 20 -16z"/>
<path d="M917 883 c-4 -3 -7 -15 -7 -25 0 -19 34 -26 44 -9 7 11 -28 43 -37
34z"/>
<path d="M1016 871 c-18 -20 -12 -31 16 -31 11 0 18 7 18 19 0 28 -15 33 -34
12z"/>
</g>
</svg>
